# xmcd
#
# Track frame offsets: 
#        150
#        13690
#        29186
#        43799
#        57327
#        68476
#        77513
#        89533
#        98093
#        112156
#        129020
#        144495
#        157999
#        172450
#        183732
#
# Disc length: 2588 seconds
#
# Revision: 1
# Processed by: cddbd v1.5.2PL0 Copyright (c) Steve Scherf et al.
# Submitted via: ExactAudioCopy v0.95b4
#
DISCID=d00a1a0f
DTITLE=Various Artist - It's Christmas Time Again
DYEAR=2007
DGENRE=Christmas
TTITLE0=Louis Armstrong - Winter Wonderland
TTITLE1=Eartha Kitt - Santa Baby
TTITLE2=Jim Reeves - Blue Christmas
TTITLE3=Peggy Lee - It's Christmas Time Again
TTITLE4=The Weavers - We Wish You A Merry Christmas
TTITLE5=Dean Martin - Let It Snow
TTITLE6=Doris Day - Here Comes Santa Claus
TTITLE7=Gene Audry - Frosty The Snowman
TTITLE8=Ella Fitzgerald - Santa Claus Got Stuck In My Chimney
TTITLE9=Glenn Miller Orchestra - Sleigh Ride
TTITLE10=Johnny Cash - Away In A Manger
TTITLE11=Harry Belafonte - Mary's Boy Child
TTITLE12=John Denver - Rudolph The Red Nosed Reindeer
TTITLE13=Rosemary Clooney - Little Drummer Boy
TTITLE14=Mahalia Jackson - Amazing Grace
EXTD=
EXTT0=
EXTT1=
EXTT2=
EXTT3=
EXTT4=
EXTT5=
EXTT6=
EXTT7=
EXTT8=
EXTT9=
EXTT10=
EXTT11=
EXTT12=
EXTT13=
EXTT14=
PLAYORDER=
